<?xml version="1.0" encoding="UTF-8" standalone="no"?>
<!-- Created with Inkscape (http://www.inkscape.org/) -->

<svg
   version="1.1"
   id="svg2"
   width="4770.5068"
   height="5162.6665"
   viewBox="0 0 4770.5068 5162.6665"
   sodipodi:docname="vecteezy_police-creative-icon-design_32800873.eps"
   xmlns:inkscape="http://www.inkscape.org/namespaces/inkscape"
   xmlns:sodipodi="http://sodipodi.sourceforge.net/DTD/sodipodi-0.dtd"
   xmlns="http://www.w3.org/2000/svg"
   xmlns:svg="http://www.w3.org/2000/svg">
  <defs
     id="defs6" />
  <sodipodi:namedview
     id="namedview4"
     pagecolor="#ffffff"
     bordercolor="#000000"
     borderopacity="0.25"
     inkscape:showpageshadow="2"
     inkscape:pageopacity="0.0"
     inkscape:pagecheckerboard="0"
     inkscape:deskcolor="#d1d1d1" />
  <g
     id="g8"
     inkscape:groupmode="layer"
     inkscape:label="ink_ext_XXXXXX"
     transform="matrix(1.3333333,0,0,-1.3333333,0,5162.6667)">
    <g
       id="g10"
       transform="scale(0.1)">
      <path
         d="m 17902.6,7171.1 c -2.3,0 -4.8,0 -6.9,0 -1734.8,3.1 -3158.2,1132.4 -3542.5,2810.5 -111.5,488.8 193.9,975.4 682.4,1087.4 489.6,111.4 975.6,-193.9 1087.5,-682.4 235.6,-1030.8 1071.6,-1398.9 1775.2,-1400.1 1.1,0 2.5,0 3.2,0 675.5,0 1548.1,367.2 1788.8,1402.9 113.6,488.8 603,791 1089.6,678.7 488.2,-113.6 791.9,-601.4 678.7,-1089.9 -390,-1679.4 -1818.8,-2807.1 -3556,-2807.1"
         style="fill:#000000;fill-opacity:1;fill-rule:evenodd;stroke:none"
         id="path12" />
      <path
         d="m 12270.5,7791.6 c -201.3,0 -400.9,66.8 -564.8,197.3 -276.2,219.1 -400.6,579.3 -317.9,922.8 l 1637.3,6818.6 c 117.3,486.9 607,785.5 1094.5,670.4 487.7,-117 788.1,-607.3 670.7,-1094.8 l -1181.8,-4922.3 3892,1947.1 c 255.9,128 556.6,128 812.1,0 l 3892.7,-1947.1 -1182.6,4922.3 c -116.9,487.5 183.5,977.5 670.7,1094.8 489.1,115.7 977.9,-183.5 1094.9,-670.4 l 1637.8,-6818.6 c 82.1,-343.2 -42.2,-703.3 -318.3,-922.8 -276.7,-219.8 -655.9,-259.5 -970.5,-101.3 l -5230.7,2616.6 -5230.1,-2616.6 c -128.5,-64.3 -267.5,-96 -406,-96"
         style="fill:#000000;fill-opacity:1;fill-rule:evenodd;stroke:none"
         id="path14" />
      <path
         d="m 16128.8,1825.6 h 3555.6 L 18840.8,7289 c -304.1,-77.3 -620.2,-117.6 -938.4,-117.6 0,0 0,0 -0.3,0 -315.1,0 -628.5,39.7 -930.1,115.7 z M 20743.3,10.1992 h -5673.4 c -265,0 -516.6,115.7028 -689.1,316.6988 -172.5,201.602 -248.4,467.5 -208.1,729.202 l 1186.7,7683.5 c 48.2,313 256.3,578.1 548.5,699.9 292.4,121.9 626.5,81.9 882.8,-104.3 308.5,-224.7 703.1,-348.1 1111.3,-348.4 h -0.2 c 410.2,0 807.2,124.9 1118.1,352.1 256.1,186.5 590.1,226.8 883.4,105.3 292.4,-121.6 500.5,-386.9 549.1,-700 l 1187.5,-7687.8 c 40.3,-261.701 -35.4,-528.201 -208.1,-729.201 C 21260,125.902 21008.3,10.1992 20743.3,10.1992 v 0"
         style="fill:#000000;fill-opacity:1;fill-rule:evenodd;stroke:none"
         id="path16" />
      <path
         d="M 24723.1,29895.9 H 11090.3 c -221,0 -434.3,80.7 -600.1,226.5 -151.7,133.8 -1478.79,1353.4 -1353.82,2971.2 77.56,998.8 671.46,1859.3 1765.72,2557 423,269.4 983.8,145.8 1253.3,-277 269.5,-422.6 145.4,-983.8 -277,-1253.3 -587.1,-374.5 -900.8,-767.2 -932,-1166.9 -35.6,-461.4 287.2,-952.5 529.9,-1242.1 h 12862.3 c 252.7,298.9 566.7,787 528.2,1247.8 -33.2,398.5 -348.1,789.8 -935.1,1163.3 -4901.6,3119.1 -5918.6,3495.2 -9084.9,1788.3 -440.9,-237.9 -991.6,-73.1 -1229.8,368.2 -237.9,441.2 -72.8,991.8 368.1,1229.8 4124.6,2223 6027.1,1259.5 10920.8,-1854.8 1097,-698.3 1692.6,-1559 1770.8,-2559 125.9,-1618.5 -1201.7,-2838.6 -1353.7,-2972.5 -165.6,-145.8 -379.2,-226.5 -599.9,-226.5"
         style="fill:#000000;fill-opacity:1;fill-rule:evenodd;stroke:none"
         id="path18" />
      <path
         d="m 14047.4,26326.4 h 7426.3 c 379.8,299.6 1012,1498.3 1882.5,3569.4 l -10948.9,0.1 c 346.8,-955.7 1139.4,-3108.6 1640.1,-3569.5 z m 7549.4,-1815.1 h -7689.9 c -1374.1,0 -2212.1,2020.5 -3245.7,4874.9 -159.4,440.3 -310.3,856.3 -392.4,1031 -132.4,281.1 -111.6,610.5 54.9,873 166.2,262.6 455.7,421.4 766.4,421.4 h 13633 c 310.5,0 599.6,-159 766.4,-421.4 166.8,-262.4 187.4,-591.6 54.8,-873 -68.7,-146.4 -186.2,-431.6 -322,-761.5 -1405.7,-3412.1 -2352.2,-5144.4 -3625.5,-5144.4 v 0"
         style="fill:#000000;fill-opacity:1;fill-rule:evenodd;stroke:none"
         id="path20" />
      <path
         d="m 13012.5,24832.2 v -2297.6 c 0,-2647.8 2153.9,-4801.8 4801.8,-4801.8 h 184.6 c 2647.4,0 4801.7,2154 4801.7,4801.7 v 2560.8 c -397.7,-403.8 -786.8,-584.2 -1203.8,-584.2 l -7689.6,0.2 c -326.1,0 -621.1,112.2 -894.7,320.9 z m 4986.4,-8915.1 h -184.6 c -3648.8,0 -6617.2,2968.1 -6617.2,6617.1 v 5586.9 c 0,435.3 308.9,809.4 736.5,891.3 427.1,81.5 853.3,-150.7 1014.4,-555.4 609.4,-1528.9 965.9,-1994.7 1103.3,-2130.6 h 7417.4 c 145,126.3 591.9,627.1 1411.3,2457.7 175.1,391 599.3,606.4 1018.2,517 418.9,-89.6 717.8,-459.7 717.8,-887.7 v -5879.1 c 0,-3649.1 -2968.1,-6617.2 -6617.1,-6617.2 v 0"
         style="fill:#000000;fill-opacity:1;fill-rule:evenodd;stroke:none"
         id="path22" />
      <path
         d="m 13908.6,14609.9 c -77.9,0 -157,10.2 -235.4,31.4 -484.1,129.6 -771.5,627.3 -642,1111.5 l 628.1,2345.4 c 129.4,484.5 627.9,770.7 1111.6,642.1 484.2,-129.6 771.5,-627.3 642.1,-1111.5 l -628.1,-2345.7 c -108.9,-405.4 -475.8,-673.2 -876.3,-673.2"
         style="fill:#000000;fill-opacity:1;fill-rule:evenodd;stroke:none"
         id="path24" />
      <path
         d="m 21904.3,14599.5 c -419.6,0 -796,292.4 -886.8,719.3 l -518.3,2439 c -104.1,490.3 209,972 699.3,1076.3 491.5,105.6 972.3,-208.7 1076.7,-699.3 l 518.3,-2438.7 c 104,-490.3 -209,-972.3 -699.3,-1076.6 -64,-13.6 -127.4,-20 -189.9,-20"
         style="fill:#000000;fill-opacity:1;fill-rule:evenodd;stroke:none"
         id="path26" />
      <path
         d="M 33557.8,0 H 2255.41 c -501.55,0 -907.7,406 -907.7,907.398 V 3432.6 c 0,501.4 406.15,907.7 907.7,907.7 H 5984.68 V 6962.7 H 2255.41 c -501.55,0 -907.7,406.3 -907.7,907.7 v 337.3 c 0,4295.7 3911.96,8207.5 8207.58,8207.5 l 4352.61,0.3 c 240.6,0 471.8,-95.8 642,-266 l 3356.7,-3357.1 3356.5,3356.8 c 170.6,170.2 401.1,266 641.8,266 l 4353.2,0.3 c 1385.1,0 2794.1,-420.2 4076.1,-1214.9 426,-264.1 557.5,-823.4 293.4,-1249.7 -264.4,-425.7 -823.4,-558.3 -1250,-293 -994.2,616.2 -2073,941.9 -3119.2,941.9 h -3977.1 l -3732.9,-3733 c -340.5,-340.4 -943.4,-340.4 -1283.7,0 l -3732.7,3733 H 9555.29 c -3094.75,0 -6030.68,-2755.7 -6361.25,-5822 h 3698.34 c 501.09,0 907.69,-406 907.69,-907.7 V 3432.3 c 0,-501.7 -406.6,-908 -907.69,-908 H 3163.11 V 1814.8 H 32650.4 v 709.5 h -3729.3 c -501.4,0 -907.7,406.3 -907.7,908 v 4437.8 c 0,501.7 406.3,907.7 907.7,907.7 H 32619 c -96.6,877.5 -412.4,1759.3 -927.7,2580.6 -266.6,424.4 -138.5,984.9 286.3,1251.5 424.1,266.5 984.6,137.8 1251.5,-286.3 809.2,-1288.7 1236.7,-2711.7 1236.7,-4115.9 v -337.3 c 0,-501.4 -406.3,-907.7 -907.7,-907.7 H 29828.8 V 4340.3 h 3729.3 c 501.4,0 907.7,-406.3 907.7,-908 V 907.398 C 34465.5,406 34059.2,0 33557.8,0"
         style="fill:#000000;fill-opacity:1;fill-rule:evenodd;stroke:none"
         id="path28" />
      <path
         d="m 28920.8,0 c -501.4,0 -907.7,406 -907.7,907.398 V 7824.2 c 0,501.4 406.3,907.7 907.7,907.7 501.4,0 907.7,-406.3 907.7,-907.7 V 907.398 C 29828.5,406 29422.2,0 28920.8,0"
         style="fill:#000000;fill-opacity:1;fill-rule:evenodd;stroke:none"
         id="path30" />
      <path
         d="m 29828.5,4340 h 4135.3 v 2622.4 h -4135.3 z m 4231.3,-1815.7 h -5139 c -501.4,0 -907.7,406.3 -907.7,908 v 4437.8 c 0,501.7 406.3,907.7 907.7,907.7 h 5142.4 c 945.9,0 1715.6,-769.5 1715.6,-1716 V 4244.2 c 0.4,-948.3 -771,-1719.9 -1719,-1719.9 v 0"
         style="fill:#b93c64;fill-opacity:1;fill-rule:evenodd;stroke:none"
         id="path32" />
      <path
         d="m 6892.38,0 c -501.4,0 -907.7,406 -907.7,907.398 V 7824.2 c 0,501.4 406.3,907.7 907.7,907.7 501.56,0 907.69,-406.3 907.69,-907.7 V 907.398 C 7800.07,406 7393.78,0 6892.38,0"
         style="fill:#000000;fill-opacity:1;fill-rule:evenodd;stroke:none"
         id="path34" />
      <path
         d="M 1849.42,4340 H 5984.68 V 6962.4 H 1849.42 Z M 6892.38,2524.3 H 1753.7 C 805.531,2524.3 34.0391,3295.6 34.0391,4244.2 v 2817.3 c 0,946.5 769.4919,1716.3 1716.1209,1716.3 l 5142.22,-0.3 c 501.56,0 907.69,-406.3 907.69,-907.7 V 3431.6 c 0,-501 -406.29,-907.3 -907.69,-907.3 v 0"
         style="fill:#b93c64;fill-opacity:1;fill-rule:evenodd;stroke:none"
         id="path36" />
      <path
         d="M 1849.42,4340 H 5984.68 V 6962.4 H 1849.42 Z M 6892.38,2524.3 H 1753.7 C 805.531,2524.3 34.0391,3295.6 34.0391,4244.2 v 2817.3 c 0,946.5 769.4919,1716.3 1716.1209,1716.3 l 5142.22,-0.3 c 501.56,0 907.69,-406.3 907.69,-907.7 V 3431.6 c 0,-501 -406.29,-907.3 -907.69,-907.3 z"
         style="fill:none;stroke:#b93c64;stroke-width:68.0798;stroke-linecap:butt;stroke-linejoin:miter;stroke-miterlimit:2.6131;stroke-dasharray:none;stroke-opacity:1"
         id="path38" />
    </g>
  </g>
</svg>
